<?xml version="1.0" encoding="utf-8"?>
<!-- Svg Vector Icons : http://www.onlinewebfonts.com/icon -->
<!DOCTYPE svg PUBLIC "-//W3C//DTD SVG 1.1//EN" "http://www.w3.org/Graphics/SVG/1.1/DTD/svg11.dtd">
<svg version="1.1" xmlns="http://www.w3.org/2000/svg" xmlns:xlink="http://www.w3.org/1999/xlink" x="0px" y="0px" viewBox="0 0 1000 1000" enable-background="new 0 0 1000 1000" xml:space="preserve">
<metadata> Svg Vector Icons : http://www.onlinewebfonts.com/icon </metadata>
<g><g transform="translate(0.000000,511.000000) scale(0.100000,-0.100000)"><path d="M6622.9,5073c-21-7.9-272.6-112.7-555.7-233.3s-521.7-220.2-529.5-220.2c-5.2,0-70.8,36.7-141.5,81.3c-162.5,99.6-298.8,115.3-783.8,81.3c-330.3-21-382.7-31.5-492.8-94.4C3970,4598.6,3860,4449.2,3818,4284l-28.8-125.8l-272.6-99.6l-272.6-99.6l-73.4,52.4c-235.9,162.5-532.1,144.2-752.3-49.8c-94.4-83.9-141.6-165.1-283.1-487.6c-194-440.4-214.9-513.8-178.3-678.9c57.7-249,246.4-432.5,503.3-487.6l146.8-31.4l125.8-311.9c99.6-251.7,118-322.4,91.7-356.5c-188.7-262.1-201.9-322.4-146.8-768.1l44.6-361.7l-65.5-62.9c-36.7-34.1-125.8-178.3-196.6-322.4l-131.1-256.9l-275.2-44.6C1165.2-350.6,475.7-932.6,205.7-1766.2C-4-2411,100.9-3090,496.7-3698.1c254.3-390.6,618.7-705.2,1069.5-920.1c1363.1-657.9,2828.5,49.8,3240,1562.4c65.5,235.9,65.5,859.8,0,1095.7c-62.9,228.1-201.9,521.7-348.7,723.5l-118,167.8l112.7,215c94.4,178.2,112.7,238.5,112.7,361.7c-2.6,267.4-115.3,393.2-555.7,613.4l-136.3,68.2l55.1,123.2c47.2,104.9,52.4,154.7,36.7,332.9c-31.5,419.4-91.7,726.1-162.5,846.7c-83.9,144.2-264.8,264.8-432.5,285.7l-125.8,15.7L3112.9,2124l-133.7,330.3l62.9,65.5c102.2,107.5,390.6,778.6,403.7,938.5l10.5,136.3l136.3,49.8c351.3,131.1,311.9,128.5,432.5,26.2c165.2-141.6,280.5-162.5,752.3-141.6c264.8,10.5,440.4,31.5,500.7,55.1c49.8,21,102.2,39.3,112.7,39.3c10.5,0,52.4-62.9,91.7-136.3l70.8-138.9l-94.4-154.7c-112.7-186.1-233.3-490.2-280.5-710.4c-55-249-41.9-770.7,26.2-1022.3c107.5-406.3,367-838.8,663.2-1098.4c487.6-429.9,1166.5-644.9,1816.6-571.5C8769.8-88.5,9653.2,700.6,9860.3,1733.4c70.8,343.4,44.6,804.8-60.3,1129.8c-118,353.9-285.7,623.9-553.1,891.3c-403.7,398.5-844.1,600.3-1441.8,660.6l-322.4,31.5l-131.1,246.4c-167.8,309.3-262.1,380.1-516.4,390.6C6740.9,5086.1,6643.9,5083.5,6622.9,5073z M6961.1,4522.5c44.5-81.3,78.6-149.4,73.4-154.7c-2.6-2.6-107.5-39.3-233.3-83.9c-277.9-94.4-568.8-256.9-794.3-443c-180.9-149.4-178.3-149.4-272.6,36.7c-60.3,123.2-73.4,306.7-21,340.8c99.6,65.5,1038.1,450.9,1098.4,453.5C6869.3,4672,6895.5,4648.4,6961.1,4522.5z M5157.5,4344.3c76-39.3,76-47.2,60.3-178.2c-7.9-76-31.4-152-49.8-170.4c-23.6-26.2-144.2-39.3-409-49.8c-351.3-15.7-372.2-13.1-332.9,26.2c23.6,26.2,52.4,68.2,60.3,99.6c23.6,73.4-34.1,201.8-97,222.8c-102.2,31.5-5.2,60.3,228.1,70.8c131.1,2.6,285.7,10.5,348.6,13.1C5029.1,4381,5113,4365.3,5157.5,4344.3z M8104,3951.1C9262.7,3641.8,9807.9,2415,9273.1,1329.7c-256.9-519-770.7-928-1352.6-1077.4c-249-65.5-747.1-65.5-983-2.6C5765.7,566.9,5217.8,1783.2,5755.2,2876.3c280.5,568.8,859.8,998.8,1502.1,1114.1C7448.7,4024.5,7915.3,4003.5,8104,3951.1z M2774.7,3481.9c34.1-31.5,131.1-68.2,175.6-68.2c31.5,0,55.1-7.9,52.4-18.4c0-13.1-44.6-120.6-99.6-243.8l-99.6-222.8l-123.2,7.9c-133.7,10.5-188.7-18.3-230.7-125.8c-23.6-62.9-26.2-62.9-62.9-15.7c-21,28.8-36.7,78.6-36.7,112.7c0,68.1,251.7,652.7,309.3,723.5c36.7,41.9,41.9,39.3,73.4-49.8C2751.1,3531.7,2769.5,3484.5,2774.7,3481.9z M3435.3,1285.1c21-34.1,57.7-201.8,78.6-374.9c73.4-545.2,65.5-558.4-191.4-432.5c-102.2,49.8-186.1,94.4-186.1,102.2c0,7.9-18.4,133.7-39.3,277.9c-55.1,382.7-57.7,369.6,60.3,359.1c78.6-7.9,110.1,2.6,159.9,57.7c36.7,36.7,68.2,68.2,73.4,68.2C3393.3,1342.8,3414.3,1316.6,3435.3,1285.1z M3131.2-46.5c49.8-18.4,154.7-36.7,235.9-36.7c128.5-2.6,191.4-26.2,437.8-157.3c159.9-83.9,304.1-165.2,322.4-178.3c49.8-41.9,39.3-123.2-34.1-246.4l-65.5-110.1L3818-633.7c-343.4,228-555.7,319.8-975.2,414.2l-73.4,15.7l70.8,144.2L2911,81.9l65.5-47.2C3013.2,8.5,3084-25.6,3131.2-46.5z M2677.7-623.2c765.4-112.7,1462.7-660.6,1693.4-1336.9c89.1-259.5,99.6-707.8,26.2-996.1C4226.9-3630,3770.8-4149,3157.4-4364c-277.9-99.6-686.8-112.7-990.9-36.7C1057.7-4120.2,321.1-3040.2,557-2038.8c86.5,369.6,346,783.8,634.4,1009.2C1621.3-688.8,2145.6-547.2,2677.7-623.2z"/></g></g>
</svg>