<?xml version="1.0" encoding="utf-8"?>
<!-- Svg Vector Icons : http://www.onlinewebfonts.com/icon -->
<!DOCTYPE svg PUBLIC "-//W3C//DTD SVG 1.1//EN" "http://www.w3.org/Graphics/SVG/1.1/DTD/svg11.dtd">
<svg version="1.1" xmlns="http://www.w3.org/2000/svg" xmlns:xlink="http://www.w3.org/1999/xlink" x="0px" y="0px" viewBox="0 0 1000 1000" enable-background="new 0 0 1000 1000" xml:space="preserve">
<metadata> Svg Vector Icons : http://www.onlinewebfonts.com/icon </metadata>
<g><g transform="translate(0.000000,512.000000) scale(0.100000,-0.100000)"><path d="M2909.7,4964.4l-55.6-55.6V4359v-548l47.9-46c44.1-46,59.4-47.9,258.6-47.9c199.3,0,214.6,1.9,258.7,47.9l47.9,46v546c0,298.9-5.7,559.5-11.5,576.7c-24.9,61.3-113,86.2-304.6,86.2C2972.9,5020,2963.4,5018.1,2909.7,4964.4z"/><path d="M3858.1,4997c-76.6-36.4-84.3-88.1-84.3-649.5V3811l47.9-46c44.1-46,59.4-47.9,258.6-47.9c199.3,0,214.6,1.9,258.7,47.9l47.9,46v551.8c-1.9,578.6-1.9,588.2-90.1,634.2C4245.1,5025.7,3913.7,5025.7,3858.1,4997z"/><path d="M4779.7,4997c-84.3-47.9-84.3-59.4-86.2-634.2V3811l47.9-46c44.1-46,59.4-47.9,258.7-47.9s214.6,1.9,258.7,47.9l47.9,46v536.5c0,569-5.8,613.1-90.1,651.4C5157.1,5025.7,4829.5,5025.7,4779.7,4997z"/><path d="M5699.3,4997c-84.3-47.9-84.3-59.4-86.2-634.2V3811l47.9-46c44.1-46,59.4-47.9,258.7-47.9s214.6,1.9,258.7,47.9l47.9,46v536.5c0,569-5.7,613.1-90,651.4C6076.8,5025.7,5749.1,5025.7,5699.3,4997z"/><path d="M6619,4997c-84.3-46-86.2-53.6-86.2-632.3V3811l47.9-46c44.1-46,59.4-47.9,258.7-47.9s214.6,1.9,258.7,47.9l47.9,46v548v549.9l-55.6,55.6c-55.5,53.6-61.3,55.6-245.2,55.6C6741.6,5020,6640,5008.5,6619,4997z"/><path d="M1172,53.9l5.7-4508.2l42.2-76.6c47.9-90,122.6-162.9,216.5-212.7c65.1-34.5,189.7-36.4,3563.6-36.4h3496.6l76.6,42.2c90,47.9,162.9,122.6,212.7,216.5c34.5,65.1,36.4,218.4,42.1,4575.2l3.8,4506.3h-689.7h-689.7v-421.5v-421.5h268.2h268.2v-3761c0-3559.8-1.9-3764.8-32.6-3791.6c-19.2-17.2-65.1-46-101.5-65.1c-65.1-34.5-168.6-36.4-2854.7-36.4c-2686.1,0-2789.6,1.9-2854.7,36.4c-36.4,19.2-82.4,47.9-99.6,65.1c-32.6,26.8-34.5,231.8-34.5,3791.6v3761h268.2h268.2v421.5v421.5h-689.7h-689.7L1172,53.9z"/><path d="M2781.4,2132.7c-34.5-17.2-76.6-55.6-92-84.3c-36.4-72.8-36.4-308.5,1.9-381.3c63.2-122.6-74.7-115,2350.8-115c1714.8,0,2218.7,5.7,2255.1,24.9c80.5,40.2,122.6,118.8,132.2,237.6c9.6,147.5-26.8,251-109.2,306.5l-65.1,44.1H5049.8C3051.5,2165.3,2838.8,2161.4,2781.4,2132.7z"/><path d="M2781.4,1059.8c-34.5-17.2-76.6-55.5-92-84.3c-36.4-72.8-36.4-308.5,1.9-381.3c63.2-122.6-74.7-115,2350.8-115c1714.8,0,2218.7,5.7,2255.1,24.9c80.5,40.2,122.6,118.8,132.2,237.6c9.6,147.5-26.8,251-109.2,306.5l-65.1,44.1H5049.8C3051.5,1092.3,2838.8,1088.5,2781.4,1059.8z"/><path d="M2773.7-11.2c-28.7-15.3-67.1-53.7-82.4-84.3c-38.3-74.7-38.3-308.4,0-383.2c63.2-122.6-74.7-115,2352.8-115h2211l65.1,44.1c151.4,101.5,151.4,423.4,0,525l-65.1,44.1H5040.2C3118.5,17.5,2817.8,13.7,2773.7-11.2z"/><path d="M2773.7-1084.2c-28.7-15.4-67.1-53.7-82.4-84.3c-38.3-74.7-38.3-308.5,0-383.2c61.3-116.9,38.3-115,1201.3-115c802.8,0,1071,5.7,1105.5,24.9c82.4,42.2,124.6,118.8,132.2,249.1c9.6,149.4-26.8,247.2-115,300.8c-61.3,36.4-93.9,38.3-1126.6,38.3C2986.4-1055.4,2817.8-1059.2,2773.7-1084.2z"/></g></g>
</svg>